<svg width="40" height="41" viewBox="0 0 40 41" fill="none" xmlns="http://www.w3.org/2000/svg">
<rect x="0.02771" y="0.672485" width="39.9446" height="39.9446" rx="10" fill="#FC2023"/>
<path d="M24.3604 21.8049C23.5687 21.1818 22.8162 20.5413 22.3151 20.0402C21.6637 19.3887 21.0832 18.7573 20.5788 18.156C21.3656 15.7248 21.7105 14.4713 21.7105 13.8031C21.7105 10.9644 20.6849 10.3822 19.1448 10.3822C17.9747 10.3822 16.5792 10.9902 16.5792 13.8849C16.5792 15.1611 17.2783 16.7104 18.6638 18.511C18.3247 19.5457 17.9263 20.7392 17.4787 22.0847C17.2632 22.7302 17.0294 23.3282 16.7821 23.8811C16.5809 23.9705 16.3854 24.0615 16.1967 24.1559C15.5169 24.4958 14.8713 24.8014 14.2724 25.0854C11.5414 26.3783 9.73743 27.2335 9.73743 28.9222C9.73743 30.1482 11.0696 30.9074 12.3031 30.9074C13.8932 30.9074 16.2943 28.7835 18.0482 25.2056C19.8688 24.4874 22.1322 23.9553 23.9186 23.6221C25.3501 24.7229 26.9311 25.7761 27.6969 25.7761C29.8174 25.7761 30.2626 24.55 30.2626 23.5219C30.2626 21.4999 27.9525 21.4999 26.8417 21.4999C26.4968 21.5 25.5715 21.6019 24.3604 21.8049ZM12.3031 29.197C11.8145 29.197 11.4837 28.9664 11.4478 28.9222C11.4478 28.3158 13.256 27.459 15.0049 26.6305C15.1159 26.5779 15.2287 26.5252 15.3431 26.471C14.0586 28.3335 12.7883 29.197 12.3031 29.197ZM18.2896 13.8849C18.2896 12.0927 18.8459 12.0927 19.1448 12.0927C19.7495 12.0927 20.0001 12.0927 20.0001 13.8031C20.0001 14.1639 19.7596 15.0659 19.3194 16.474C18.6478 15.44 18.2896 14.5539 18.2896 13.8849ZM18.9452 23.0769C18.9987 22.9282 19.0505 22.7779 19.1006 22.6259C19.4179 21.6738 19.7036 20.8185 19.9583 20.0485C20.3133 20.4394 20.6958 20.8394 21.1059 21.2495C21.2662 21.4098 21.6637 21.7706 22.1933 22.2224C21.1391 22.4521 20.0176 22.7369 18.9452 23.0769ZM28.5522 23.522C28.5522 23.9062 28.5522 24.0657 27.7588 24.0707C27.5258 24.0206 26.9871 23.7033 26.3222 23.2506C26.5636 23.2239 26.7415 23.2105 26.8417 23.2105C28.1054 23.2105 28.4637 23.3341 28.5522 23.522Z" fill="white"/>
</svg>
